<svg width="24" height="24" viewBox="0 0 24 24" fill="none" xmlns="http://www.w3.org/2000/svg">
<g clip-path="url(#clip0_1067_1133)">
<path d="M21.3333 3.33325H2.66667C1.95942 3.33325 1.28115 3.6142 0.781049 4.1143C0.280952 4.6144 0 5.29267 0 5.99992L0 8.99992H24V5.99992C24 5.29267 23.719 4.6144 23.219 4.1143C22.7189 3.6142 22.0406 3.33325 21.3333 3.33325Z" fill="#007A3D"/>
<path d="M0 18C0 18.7072 0.280952 19.3855 0.781049 19.8856C1.28115 20.3857 1.95942 20.6667 2.66667 20.6667H21.3333C22.0406 20.6667 22.7189 20.3857 23.219 19.8856C23.719 19.3855 24 18.7072 24 18V15H0V18Z" fill="#CE1126"/>
<path d="M0 9H24V15H0V9Z" fill="#EEEEEE"/>
<path d="M0.803334 4.09204C0.548792 4.3403 0.346565 4.63705 0.20859 4.96475C0.0706161 5.29245 -0.00030923 5.64448 1.01342e-06 6.00004V18C1.01342e-06 18.748 0.308001 19.4234 0.803334 19.908L6 15V9.00004L0.803334 4.09204Z" fill="#141414"/>
</g>
<defs>
<clipPath id="clip0_1067_1133">
<rect width="24" height="24" fill="white"/>
</clipPath>
</defs>
</svg>
